<?xml version="1.0" encoding="UTF-8" standalone="no"?>
<!-- Created with Inkscape (http://www.inkscape.org/) -->

<svg
   xmlns:dc="http://purl.org/dc/elements/1.1/"
   xmlns:cc="http://creativecommons.org/ns#"
   xmlns:rdf="http://www.w3.org/1999/02/22-rdf-syntax-ns#"
   xmlns:svg="http://www.w3.org/2000/svg"
   xmlns="http://www.w3.org/2000/svg"
   xmlns:sodipodi="http://sodipodi.sourceforge.net/DTD/sodipodi-0.dtd"
   xmlns:inkscape="http://www.inkscape.org/namespaces/inkscape"
   width="720"
   height="1280"
   id="svg4436"
   version="1.1"
   inkscape:version="0.48.5 r10040"
   sodipodi:docname="cannon_v2.svg">
  <defs
     id="defs4438" />
  <sodipodi:namedview
     id="base"
     pagecolor="#ffffff"
     bordercolor="#666666"
     borderopacity="1.0"
     inkscape:pageopacity="0.0"
     inkscape:pageshadow="2"
     inkscape:zoom="0.30841644"
     inkscape:cx="371.96333"
     inkscape:cy="341.06902"
     inkscape:document-units="px"
     inkscape:current-layer="layer5"
     showgrid="false"
     inkscape:window-width="1276"
     inkscape:window-height="755"
     inkscape:window-x="0"
     inkscape:window-y="0"
     inkscape:window-maximized="1" />
  <metadata
     id="metadata4441">
    <rdf:RDF>
      <cc:Work
         rdf:about="">
        <dc:format>image/svg+xml</dc:format>
        <dc:type
           rdf:resource="http://purl.org/dc/dcmitype/StillImage" />
        <dc:title></dc:title>
      </cc:Work>
    </rdf:RDF>
  </metadata>
  <g
     inkscape:groupmode="layer"
     id="layer5"
     inkscape:label="Handle"
     style="display:inline">
    <g
       id="g5130"
       transform="translate(-102.94329,-103.1379)">
      <path
         inkscape:connector-curvature="0"
         id="path5126"
         d="m 581.26014,1162.9353 c -2.50213,6.3973 -1.27679,13.9247 -1.66231,20.7461 0.6625,4.6257 -0.7951,10.3996 2.12578,14.2823 4.57427,1.1568 3.3559,-5.4122 3.6922,-8.1264 -0.0984,-8.7612 0.82644,-17.799 -0.81197,-26.3953 -0.67795,-1.1756 -2.13777,-1.5178 -3.3437,-0.5067 z"
         style="fill:#552200;fill-opacity:1;stroke:#000000;stroke-width:0;stroke-miterlimit:4;stroke-opacity:1;stroke-dasharray:none;stroke-dashoffset:0" />
      <path
         inkscape:connector-curvature="0"
         id="path5124"
         d="m 638.53356,896.80774 c -2.43277,5.70739 -0.7998,12.52218 -1.50418,18.61824 -0.69195,83.75966 -0.28952,167.79252 -0.75028,251.38502 -14.42428,-3.8194 -28.64211,-9.3959 -43.76927,-10.0721 -5.25102,-1.7415 -10.61646,0.2292 -7.94588,6.5261 1.3638,13.1474 0.61457,26.528 -0.24735,39.5795 2.63655,3.0118 7.85503,-0.2469 11.57397,-0.04 14.89944,-1.9158 29.51988,-6.4243 43.55491,-11.2703 16.93556,4.7764 33.75099,10.8103 51.48178,12.4641 5.15835,1.4297 3.59546,-4.2199 3.05588,-7.2205 -0.53454,-12.9557 -0.92727,-26.2185 0.73338,-38.9645 -2.65061,-3.3507 -8.51398,-0.3624 -12.52872,-0.7115 -13.14052,1.351 -25.82008,5.5111 -38.25874,9.4814 -1.23933,-45.3892 -0.47469,-90.8233 -0.70926,-136.2302 -0.22681,-43.36389 0.47444,-86.7522 -0.70927,-130.10004 0.13565,-2.20266 -1.32807,-5.31593 -3.97697,-3.44502 z"
         style="fill:#552200;fill-opacity:1;stroke:#000000;stroke-width:0;stroke-miterlimit:4;stroke-opacity:1;stroke-dasharray:none;stroke-dashoffset:0" />
      <path
         inkscape:connector-curvature="0"
         id="path5128"
         d="m 694.28711,1161.0102 c -2.25226,12.3997 -1.78435,25.2808 -0.37996,37.7685 3.67703,4.8318 4.77323,-3.0124 4.74724,-6.0771 0.45861,-10.4849 1.06792,-21.3158 -1.09785,-31.5585 -0.51133,-1.4216 -2.4629,-1.141 -3.26943,-0.1329 z"
         style="fill:#552200;fill-opacity:1;stroke:#000000;stroke-width:0;stroke-miterlimit:4;stroke-opacity:1;stroke-dasharray:none;stroke-dashoffset:0" />
      <g
         transform="translate(114.39681,297.94086)"
         id="g5055">
        <g
           id="g5043"
           transform="translate(-0.0741384,-8)">
          <path
             transform="translate(0,-227.63782)"
             d="m 471.42857,1118.0358 c 0,13.1167 -1.35914,23.75 -3.03572,23.75 -1.67658,0 -3.03571,-10.6333 -3.03571,-23.75 0,-13.1168 1.35913,-23.75 3.03571,-23.75 1.67658,0 3.03572,10.6332 3.03572,23.75 z"
             sodipodi:ry="23.75"
             sodipodi:rx="3.0357144"
             sodipodi:cy="1118.0358"
             sodipodi:cx="468.39285"
             id="path5030"
             style="fill:none;stroke:#000000;stroke-width:3;stroke-miterlimit:4;stroke-opacity:1;stroke-dasharray:none;stroke-dashoffset:0"
             sodipodi:type="arc" />
          <path
             sodipodi:type="arc"
             style="fill:none;stroke:#000000;stroke-width:3;stroke-miterlimit:4;stroke-opacity:1;stroke-dasharray:none;stroke-dashoffset:0"
             id="path5032"
             sodipodi:cx="468.39285"
             sodipodi:cy="1118.0358"
             sodipodi:rx="3.0357144"
             sodipodi:ry="23.75"
             d="m 471.42857,1118.0358 c 0,13.1167 -1.35914,23.75 -3.03572,23.75 -1.67658,0 -3.03571,-10.6333 -3.03571,-23.75 0,-13.1168 1.35913,-23.75 3.03571,-23.75 1.67658,0 3.03572,10.6332 3.03572,23.75 z"
             transform="translate(113.21429,-227.63782)" />
        </g>
        <g
           id="g5038">
          <path
             transform="translate(0,-227.63782)"
             inkscape:connector-curvature="0"
             id="path5026"
             d="m 522.24887,824.4212 0,273.7513"
             style="fill:none;stroke:#000000;stroke-width:3;stroke-linecap:butt;stroke-linejoin:miter;stroke-miterlimit:4;stroke-opacity:1;stroke-dasharray:none" />
          <path
             style="fill:none;stroke:#000000;stroke-width:3;stroke-linecap:butt;stroke-linejoin:miter;stroke-miterlimit:4;stroke-opacity:1;stroke-dasharray:none"
             d="m 528.30979,596.78338 0,273.7513"
             id="path5028"
             inkscape:connector-curvature="0" />
          <path
             inkscape:connector-curvature="0"
             id="path5036"
             d="m 522.14286,598.30518 5.35714,0"
             style="fill:none;stroke:#000000;stroke-width:3;stroke-linecap:butt;stroke-linejoin:miter;stroke-miterlimit:4;stroke-opacity:1;stroke-dasharray:none" />
        </g>
        <path
           style="fill:none;stroke:#000000;stroke-width:3;stroke-linecap:butt;stroke-linejoin:miter;stroke-miterlimit:4;stroke-opacity:1;stroke-dasharray:none"
           d="m 468.71078,858.61248 c 0,0 22.98097,-1.5152 52.78047,11.1117"
           id="path5047"
           inkscape:connector-curvature="0" />
        <path
           inkscape:connector-curvature="0"
           id="path5049"
           d="m 581.09025,858.61248 c 0,0 -22.98097,-1.5152 -52.78047,11.1117"
           style="fill:none;stroke:#000000;stroke-width:3;stroke-linecap:butt;stroke-linejoin:miter;stroke-miterlimit:4;stroke-opacity:1;stroke-dasharray:none" />
        <path
           inkscape:connector-curvature="0"
           id="path5051"
           d="m 467.97347,906.24342 c 0,0 28.71272,-1.06405 58.51222,-13.69098"
           style="fill:none;stroke:#000000;stroke-width:3;stroke-linecap:butt;stroke-linejoin:miter;stroke-miterlimit:4;stroke-opacity:1;stroke-dasharray:none"
           sodipodi:nodetypes="cc" />
        <path
           style="fill:none;stroke:#000000;stroke-width:3;stroke-linecap:butt;stroke-linejoin:miter;stroke-miterlimit:4;stroke-opacity:1;stroke-dasharray:none"
           d="m 581.34279,906.24342 c 0,0 -25.99014,-0.92079 -55.78964,-13.54769"
           id="path5053"
           inkscape:connector-curvature="0"
           sodipodi:nodetypes="cc" />
      </g>
    </g>
  </g>
  <g
     inkscape:label="Main body"
     inkscape:groupmode="layer"
     id="layer1"
     transform="translate(0,227.63782)"
     style="display:inline">
    <g
       id="g5204">
      <path
         inkscape:connector-curvature="0"
         id="path5108"
         d="m 283.47196,556.89904 c -3.27444,2.41477 -2.65573,7.08238 -3.44489,10.67386 -2.91971,24.8023 -2.93785,49.88505 -1.78597,74.80564 0.66761,10.08608 1.10555,20.30395 3.3057,30.1439 1.07183,3.27152 6.00288,3.53134 7.43507,0.53583 1.90786,-5.36827 1.92367,-11.25314 2.71309,-16.87225 1.76965,-17.68301 1.31145,-35.49887 1.36491,-53.2478 -0.19152,-14.04943 -0.9209,-28.15969 -3.17917,-42.03688 -0.28073,-3.06926 -3.3736,-5.59444 -6.40874,-4.0023 z"
         style="fill:#782121;fill-opacity:1;stroke:#000000;stroke-width:0;stroke-miterlimit:4;stroke-opacity:1;stroke-dasharray:none;stroke-dashoffset:0" />
      <path
         inkscape:connector-curvature="0"
         id="path5106"
         d="m 288.31018,553.23871 c -3.32267,2.16296 -1.26715,6.08175 -0.93725,9.1445 3.33667,21.49745 3.26525,43.39123 3.05239,65.13869 -0.43352,15.54567 -0.86027,31.16547 -4.01497,46.44441 -0.16156,3.18762 3.06807,4.82958 5.82614,4.48358 10.71784,0.28261 21.48221,0.28181 32.18211,0.0985 3.73498,-0.32418 3.86331,-4.65881 3.6217,-7.53316 0.12294,-23.24442 0.0392,-46.56408 0.28021,-69.76162 5.07032,-3.02342 11.32573,-3.34215 17.06989,-4.29384 12.95549,-1.08942 26.12498,-0.98984 39.12609,-0.37854 6.7953,0.87176 14.0558,1.23691 20.21501,4.36841 1.33139,0.98018 0.28061,3.22614 0.70927,4.63557 0.30415,23.14671 -0.0796,46.3317 0.21811,69.4567 0.32532,3.74101 4.66906,3.86247 7.54585,3.6106 10.24827,-0.0911 20.51494,0.2072 30.75184,-0.24064 3.25177,-0.73746 3.70226,-4.48802 2.68785,-7.15947 -3.3304,-17.69654 -3.4048,-35.80052 -3.67271,-53.7742 0.14976,-18.48594 0.25509,-37.15343 3.27023,-55.35271 0.6074,-2.90446 2.13528,-7.456 -1.59172,-8.84983 -3.51549,-1.03402 -7.4445,-0.17898 -11.11733,-0.48068 -47.74037,-0.14963 -95.48105,-0.0663 -143.22156,-0.0883 -0.66705,0.17732 -1.3341,0.35463 -2.00115,0.53195 z"
         style="fill:#782121;fill-opacity:1;stroke:#000000;stroke-width:0;stroke-miterlimit:4;stroke-opacity:1;stroke-dasharray:none;stroke-dashoffset:0" />
      <path
         inkscape:connector-curvature="0"
         id="path5110"
         d="m 446.84431,556.73439 c -3.88858,1.6895 -3.25607,6.58245 -4.06563,10.03108 -2.73603,22.1152 -2.59323,44.47312 -2.23302,66.7216 0.44516,12.77469 0.90888,25.677 3.53757,38.21211 0.92824,3.82107 6.86852,3.86144 7.91594,0.11399 2.30412,-9.33606 2.54978,-19.01316 3.25862,-28.57154 1.21315,-25.3802 1.11469,-50.93457 -1.81475,-76.18485 -0.75975,-3.40826 -0.15066,-8.17346 -3.54635,-10.09441 -0.88724,-0.28108 -2.00721,-0.53458 -3.05238,-0.22798 z"
         style="fill:#782121;fill-opacity:1;stroke:#000000;stroke-width:0;stroke-miterlimit:4;stroke-opacity:1;stroke-dasharray:none;stroke-dashoffset:0" />
      <path
         inkscape:connector-curvature="0"
         id="path5104"
         d="m 363.11265,593.32503 c -11.49338,0.3968 -23.3747,0.53163 -34.28552,4.45826 -3.16395,1.10969 -3.33331,4.76321 -3.22479,7.6119 -0.50475,58.1241 -0.21435,116.25277 -0.29309,174.37879 0.1092,26.2033 -0.19898,52.4198 0.36417,78.6147 -0.36808,2.9397 1.90404,6.3301 5.14178,5.5545 15.35405,-4.3544 31.76752,-3.7976 47.69795,-3.5183 8.44438,0.3711 16.99399,1.4522 25.12912,3.6633 3.46944,-0.068 4.54531,-3.7373 4.3316,-6.5987 0.53711,-38.3385 0.21839,-76.686 0.31664,-115.02812 0,-46.77794 0,-93.55587 0,-140.3338 -0.60654,-4.45689 -5.94118,-5.09829 -9.47638,-6.10594 -11.66955,-2.51908 -23.7916,-2.75364 -35.70148,-2.69659 z"
         style="fill:#782121;fill-opacity:1;stroke:#000000;stroke-width:0;stroke-miterlimit:4;stroke-opacity:1;stroke-dasharray:none;stroke-dashoffset:0" />
      <path
         sodipodi:open="true"
         sodipodi:end="7.7623074"
         sodipodi:start="1.6567888"
         sodipodi:type="arc"
         style="fill:none;stroke:#000000;stroke-width:5;stroke-miterlimit:4;stroke-opacity:1;stroke-dasharray:none"
         id="path4979"
         sodipodi:cx="360.71429"
         sodipodi:cy="1087.1428"
         sodipodi:rx="40.021027"
         sodipodi:ry="6.8680167"
         d="m 357.27703,1093.9855 a 40.021027,6.8680167 0 1 1 7.10102,-0"
         transform="translate(6.06092,-221.5769)" />
      <path
         sodipodi:open="true"
         sodipodi:end="6.3903677"
         sodipodi:start="2.9092495"
         transform="translate(6.06092,-485.73179)"
         d="m 321.76865,1088.7242 a 40.021027,6.8680167 0 1 1 78.73701,-0.8467"
         sodipodi:ry="6.8680167"
         sodipodi:rx="40.021027"
         sodipodi:cy="1087.1428"
         sodipodi:cx="360.71429"
         id="path4981"
         style="fill:none;stroke:#000000;stroke-width:5;stroke-miterlimit:4;stroke-opacity:1;stroke-dasharray:none"
         sodipodi:type="arc" />
      <path
         inkscape:connector-curvature="0"
         id="path4983"
         d="m 326.78435,865.48394 0,-263.64979"
         style="fill:none;stroke:#000000;stroke-width:5;stroke-linecap:butt;stroke-linejoin:miter;stroke-miterlimit:4;stroke-opacity:1;stroke-dasharray:none" />
      <path
         inkscape:connector-curvature="0"
         id="path4985"
         d="m 406.78088,600.824 0,264.65994"
         style="fill:none;stroke:#000000;stroke-width:5;stroke-linecap:butt;stroke-linejoin:miter;stroke-miterlimit:4;stroke-opacity:1;stroke-dasharray:none" />
      <path
         transform="translate(-560.55134,-194.87349)"
         d="m 852.56874,810.53162 a 6.5659914,61.871845 0 1 1 -13.13198,0 6.5659914,61.871845 0 1 1 13.13198,0 z"
         sodipodi:ry="61.871845"
         sodipodi:rx="6.5659914"
         sodipodi:cy="810.53162"
         sodipodi:cx="846.00275"
         id="path4987"
         style="fill:none;stroke:#000000;stroke-width:5;stroke-miterlimit:4;stroke-opacity:1;stroke-dasharray:none;stroke-dashoffset:0"
         sodipodi:type="arc" />
      <path
         transform="translate(-397.90372,-194.87349)"
         d="m 852.56874,810.53162 a 6.5659914,61.871845 0 1 1 -13.13198,0 6.5659914,61.871845 0 1 1 13.13198,0 z"
         sodipodi:ry="61.871845"
         sodipodi:rx="6.5659914"
         sodipodi:cy="810.53162"
         sodipodi:cx="846.00275"
         id="path4991"
         style="fill:none;stroke:#000000;stroke-width:5;stroke-miterlimit:4;stroke-opacity:1;stroke-dasharray:none;stroke-dashoffset:0"
         sodipodi:type="arc" />
      <path
         inkscape:connector-curvature="0"
         id="path4997"
         d="m 284.79964,553.87125 162.85714,0"
         style="fill:none;stroke:#000000;stroke-width:5;stroke-linecap:butt;stroke-linejoin:miter;stroke-miterlimit:4;stroke-opacity:1;stroke-dasharray:none" />
      <path
         inkscape:connector-curvature="0"
         id="path4999"
         d="m 285.51393,677.28554 40.71428,0"
         style="fill:none;stroke:#000000;stroke-width:5;stroke-linecap:butt;stroke-linejoin:miter;stroke-miterlimit:4;stroke-opacity:1;stroke-dasharray:none" />
      <path
         inkscape:connector-curvature="0"
         id="path5001"
         d="m 448.01398,677.44268 -42.50005,0"
         style="fill:none;stroke:#000000;stroke-width:5;stroke-linecap:butt;stroke-linejoin:miter;stroke-miterlimit:4;stroke-opacity:1;stroke-dasharray:none" />
      <path
         transform="translate(0,-227.63782)"
         inkscape:connector-curvature="0"
         id="path5198"
         d="m 365.9817,1088.0034 c -7.97765,0.032 -15.97461,0.277 -23.88081,1.3972 -4.08554,0.6193 -8.27879,1.1571 -12.09489,2.8166 -0.99769,0.4884 -0.6229,1.9853 0.39405,2.1718 5.91399,2.135 12.23906,2.7504 18.45804,3.3808 4.70054,0.4025 9.43704,0.7128 14.14882,0.6264 1.15334,-0.2165 0.96576,-1.7136 0.70896,-2.5743 -0.46094,-0.8593 -1.80179,-1.3818 -1.53145,-2.5479 -0.0106,-1.3107 1.53058,-2.004 2.60615,-2.3151 2.05892,-0.2978 4.4537,-0.5292 6.20642,0.8373 1.27112,0.6812 1.1421,2.6235 -0.0627,3.3048 -0.80601,0.7301 -0.68876,2.0103 -0.42093,2.9464 0.87619,0.8308 2.20923,0.2142 3.28988,0.3428 8.51068,-0.3268 17.07425,-0.9315 25.39617,-2.7634 1.71303,-0.4752 3.57187,-0.804 4.99696,-1.9095 0.50969,-0.9996 -0.58018,-1.608 -1.39264,-1.836 -4.71854,-1.7425 -9.79294,-2.2955 -14.76739,-2.9036 -7.32216,-0.8164 -14.68894,-1.0899 -22.05465,-0.9743 z"
         style="fill:#782121;fill-opacity:1;stroke:#000000;stroke-width:0.28658766;stroke-miterlimit:4;stroke-opacity:1;stroke-dasharray:none;stroke-dashoffset:0" />
      <path
         transform="translate(0,-227.63782)"
         inkscape:connector-curvature="0"
         id="path5190"
         d="m 363.5,1095.2863 -0.35464,5.7754"
         style="fill:none;stroke:#000000;stroke-width:1px;stroke-linecap:butt;stroke-linejoin:miter;stroke-opacity:1;display:inline" />
      <path
         transform="translate(0,-227.63782)"
         inkscape:connector-curvature="0"
         id="path5192"
         d="m 370.69401,1094.7797 0.0507,5.5221"
         style="fill:#501616;stroke:#000000;stroke-width:1px;stroke-linecap:butt;stroke-linejoin:miter;stroke-opacity:1;display:inline" />
      <path
         sodipodi:open="true"
         sodipodi:end="7.0401877"
         sodipodi:start="2.2726971"
         transform="translate(-1.2366423,-227.80868)"
         d="m 365.09991,1095.6537 a 4.9022851,2.7225823 0 1 1 6.72872,-0.2093"
         sodipodi:ry="2.7225823"
         sodipodi:rx="4.9022851"
         sodipodi:cy="1093.5747"
         sodipodi:cx="368.26517"
         id="path5163"
         style="fill:none;stroke:#000000;stroke-width:2;stroke-miterlimit:4;stroke-opacity:1;stroke-dasharray:none;stroke-dashoffset:0"
         sodipodi:type="arc" />
    </g>
  </g>
</svg>
